<svg width="1200" height="630" viewBox="0 0 1200 630" fill="none" xmlns="http://www.w3.org/2000/svg">
  <rect width="1200" height="630" fill="#0a0e17"/>
  <rect x="1" y="1" width="1198" height="628" rx="0" stroke="#3b82f6" stroke-width="2" fill="none"/>
  <circle cx="600" cy="260" r="60" stroke="#14B8A6" stroke-width="4" fill="none" opacity="0.8"/>
  <rect x="596" y="234" width="8" height="52" rx="4" fill="#0F766E"/>
  <path d="M600 234 L580 220" stroke="#14B8A6" stroke-width="5" stroke-linecap="round"/>
  <path d="M600 234 L620 220" stroke="#14B8A6" stroke-width="5" stroke-linecap="round"/>
  <path d="M600 252 L584 243" stroke="#14B8A6" stroke-width="4" stroke-linecap="round" opacity="0.8"/>
  <path d="M600 252 L616 243" stroke="#14B8A6" stroke-width="4" stroke-linecap="round" opacity="0.8"/>
  <path d="M600 286 L584 295" stroke="#0F766E" stroke-width="5" stroke-linecap="round"/>
  <path d="M600 286 L616 295" stroke="#0F766E" stroke-width="5" stroke-linecap="round"/>
  <path d="M600 286 L600 300" stroke="#0F766E" stroke-width="5" stroke-linecap="round"/>
  <circle cx="580" cy="220" r="6" fill="#2DD4BF"/>
  <circle cx="620" cy="220" r="6" fill="#2DD4BF"/>
  <circle cx="584" cy="243" r="5" fill="#2DD4BF" opacity="0.9"/>
  <circle cx="616" cy="243" r="5" fill="#2DD4BF" opacity="0.9"/>
  <circle cx="584" cy="295" r="6" fill="#0F766E"/>
  <circle cx="616" cy="295" r="6" fill="#0F766E"/>
  <circle cx="600" cy="300" r="6" fill="#0F766E"/>
  <circle cx="600" cy="260" r="10" fill="#2DD4BF"/>
  <circle cx="600" cy="260" r="5" fill="#0F766E" opacity="0.6"/>
  <text x="600" y="400" text-anchor="middle" font-family="system-ui, -apple-system, sans-serif" font-size="48" font-weight="bold" fill="#f1f5f9">Yggdrasil</text>
  <text x="600" y="450" text-anchor="middle" font-family="system-ui, -apple-system, sans-serif" font-size="24" fill="#94a3b8">Asgard Open Source Gallery</text>
</svg>
